<svg width="133" height="147" viewBox="0 0 133 147" fill="none" xmlns="http://www.w3.org/2000/svg">
<path d="M67.8588 59.3368C72.2899 57.8922 73.4552 49.4707 70.4615 40.5267C67.4678 31.5828 61.4489 25.5033 57.0178 26.9479C52.5867 28.3924 51.4215 36.814 54.4151 45.7579C57.4088 54.7019 63.4278 60.7813 67.8588 59.3368Z" fill="#FFC700"/>
<path d="M65.1681 60.8391C68.2737 57.4016 65.0162 49.5333 57.8923 43.2649C50.7684 36.9964 42.4758 34.7015 39.3702 38.139C36.2646 41.5766 39.5221 49.4449 46.646 55.7133C53.7699 61.9818 62.0626 64.2767 65.1681 60.8391Z" fill="#FFC700"/>
<path d="M63.5973 63.4685C64.5452 58.9591 57.7377 53.7524 48.3924 51.839C39.0471 49.9257 30.7028 52.0303 29.7549 56.5397C28.807 61.0492 35.6144 66.2559 44.9597 68.1692C54.305 70.0826 62.6493 67.978 63.5973 63.4685Z" fill="#FFC700"/>
<path d="M49.8022 79.7889C58.8649 76.8345 65.025 70.8943 63.5613 66.5213C62.0975 62.1482 53.5642 60.9982 44.5016 63.9527C35.439 66.9072 29.2789 72.8473 30.7426 77.2204C32.2063 81.5934 40.7396 82.7434 49.8022 79.7889Z" fill="#FFC700"/>
<path d="M59.8931 87.4619C66.2447 80.4313 68.5701 72.2473 65.0869 69.1824C61.6038 66.1175 53.6311 69.3323 47.2795 76.363C40.9278 83.3936 38.6025 91.5776 42.0856 94.6425C45.5688 97.7074 53.5415 94.4926 59.8931 87.4619Z" fill="#FFC700"/>
<path d="M72.5211 89.1286C74.4598 79.9057 72.3273 71.6707 67.758 70.7351C63.1887 69.7996 57.913 76.5179 55.9742 85.7409C54.0355 94.9638 56.168 103.199 60.7373 104.134C65.3066 105.07 70.5824 98.3515 72.5211 89.1286Z" fill="#FFC700"/>
<path d="M81.6826 103.153C86.1136 101.708 87.2789 93.2868 84.2852 84.3429C81.2916 75.3989 75.2726 69.3195 70.8415 70.764C66.4105 72.2086 65.2452 80.6301 68.2389 89.5741C71.2325 98.5181 77.2515 104.598 81.6826 103.153Z" fill="#FFC700"/>
<path d="M99.3395 91.9639C102.445 88.5263 99.1876 80.6581 92.0637 74.3896C84.9398 68.1212 76.6471 65.8263 73.5416 69.2638C70.436 72.7014 73.6935 80.5696 80.8174 86.8381C87.9413 93.1065 96.234 95.4014 99.3395 91.9639Z" fill="#FFC700"/>
<path d="M108.962 73.5601C109.91 69.0506 103.103 63.8439 93.7577 61.9306C84.4124 60.0173 76.0681 62.1218 75.1202 66.6313C74.1722 71.1408 80.9797 76.3474 90.325 78.2608C99.6703 80.1741 108.015 78.0695 108.962 73.5601Z" fill="#FFC700"/>
<path d="M94.2002 66.1483C103.263 63.1939 109.423 57.2537 107.959 52.8807C106.495 48.5076 97.9622 47.3576 88.8996 50.3121C79.8369 53.2666 73.6768 59.2067 75.1405 63.5797C76.6043 67.9528 85.1376 69.1028 94.2002 66.1483Z" fill="#FFC700"/>
<path d="M91.4317 53.7393C97.7833 46.7087 100.109 38.5246 96.6255 35.4597C93.1423 32.3948 85.1697 35.6097 78.818 42.6403C72.4664 49.6709 70.141 57.855 73.6242 60.9198C77.1074 63.9847 85.08 60.7699 91.4317 53.7393Z" fill="#FFC700"/>
<path d="M82.7457 44.3596C84.6844 35.1366 82.5519 26.9016 77.9826 25.9661C73.4133 25.0306 68.1376 31.7489 66.1988 40.9718C64.2601 50.1947 66.3926 58.4298 70.9619 59.3653C75.5312 60.3008 80.807 53.5825 82.7457 44.3596Z" fill="#FFC700"/>
<path d="M69.3543 76.7182C75.8875 76.7182 81.1837 71.4913 81.1837 65.0437C81.1837 58.596 75.8875 53.3691 69.3543 53.3691C62.8211 53.3691 57.5249 58.596 57.5249 65.0437C57.5249 71.4913 62.8211 76.7182 69.3543 76.7182Z" fill="#FAFAFA"/>
</svg>
