<svg width="71" height="71" viewBox="0 0 71 71" fill="none" xmlns="http://www.w3.org/2000/svg">
<path d="M21.7554 32.858V28.1099C21.7554 27.8288 21.7554 27.7164 22.1222 27.7164C25.2669 27.7164 27.8229 27.53 29.092 28.2785C30.3641 29.024 30.4174 30.0535 30.4381 30.3611C30.4588 30.6688 30.4499 31.1096 29.8582 32.1835C29.2666 33.2574 26.6189 33.2781 24.7078 33.2781H22.1784C21.8678 33.2781 21.7554 33.1656 21.7554 32.858ZM30.4706 37.8339C30.7636 38.2079 30.9728 38.6406 31.0839 39.1025C31.195 39.5644 31.2054 40.0449 31.1145 40.5112C31.0236 40.9776 30.8334 41.4189 30.557 41.8053C30.2805 42.1917 29.9242 42.5141 29.5121 42.7506C28.9069 43.0053 28.2576 43.139 27.601 43.1441H22.1488C21.8678 43.1441 21.7554 43.1441 21.7554 42.7802V37.1594C21.7554 36.8784 21.7554 36.7659 22.1222 36.7659H25.7462C27.9945 36.7659 29.3997 36.5707 30.4706 37.8339Z" fill="#FAFAFA"/>
<path d="M50.2593 35.231C50.1086 34.8755 49.8798 34.5586 49.59 34.3035C49.3001 34.0485 48.9566 33.862 48.5849 33.7577C47.8419 33.5547 47.0642 33.5117 46.3033 33.6315C45.5425 33.7514 44.8157 34.0313 44.171 34.4529C43.5286 35.102 43.1135 35.9416 42.9877 36.8462C42.9877 37.1627 42.9877 37.2219 43.3634 37.2219H50.3747C50.7208 37.2219 50.7208 37.2219 50.6912 36.787C50.6581 36.2434 50.5128 35.713 50.2593 35.231ZM50.2593 35.231C50.1086 34.8755 49.8768 34.5586 49.587 34.3035C49.2971 34.0485 48.9566 33.862 48.5849 33.7577C47.8419 33.5547 47.0642 33.5117 46.3033 33.6315C45.5425 33.7514 44.8157 34.0313 44.171 34.4529C43.5286 35.102 43.1105 35.9416 42.9847 36.8462C42.9847 37.1627 42.9847 37.2219 43.3605 37.2219H50.3747C50.7208 37.2219 50.7208 37.2219 50.6912 36.787C50.6581 36.2434 50.5069 35.713 50.2534 35.231M53.546 7.396H18.9335C15.8736 7.396 12.939 8.61155 10.7753 10.7753C8.61155 12.939 7.396 15.8736 7.396 18.9335V53.546C7.396 56.6059 8.61155 59.5405 10.7753 61.7042C12.939 63.8679 15.8736 65.0835 18.9335 65.0835H53.546C56.6059 65.0835 59.5405 63.8679 61.7042 61.7042C63.8679 59.5405 65.0835 56.6059 65.0835 53.546V18.9335C65.0835 15.8736 63.8679 12.939 61.7042 10.7753C59.5405 8.61155 56.6059 7.396 53.546 7.396ZM42.2392 25.7672C42.2392 25.5395 42.2393 25.4507 42.4996 25.4507H51.845V27.8765C51.845 27.8765 51.8538 28.0481 51.7 28.0481H42.6445C42.2392 28.0481 42.2392 28.0481 42.2392 27.6458V25.7672ZM33.5861 46.9696C30.0361 48.9014 24.0692 48.1234 17.0017 48.1234V24.2112H28.2789C31.1632 24.2112 34.5949 24.933 35.5179 27.989C35.9972 29.3237 35.968 30.7882 35.436 32.1028C34.9039 33.4174 33.9063 34.4899 32.6335 35.1156C33.8067 35.5497 34.8309 36.3108 35.5849 37.3089C36.339 38.3069 36.7914 39.5001 36.8885 40.7472C36.9856 41.9943 36.7234 43.2432 36.1329 44.3459C35.5424 45.4487 34.6483 46.3591 33.5565 46.9696H33.5861ZM55.0755 40.1625H43.538C43.2214 40.1625 42.9315 40.3341 42.9877 40.7394C43.3338 42.4404 44.1119 44.2302 45.875 44.4905C46.806 44.7676 47.803 44.725 48.707 44.3695C49.611 44.0141 50.3699 43.3662 50.8628 42.5292C50.8628 42.5292 51.0077 42.3546 51.0935 42.3546H54.8447C54.8447 42.3546 55.0755 42.3546 55.0163 42.5558C54.6207 43.676 54.0353 44.7197 53.2857 45.6413C52.2831 46.599 51.0733 47.3127 49.7503 47.7271C48.4272 48.1415 47.0264 48.2455 45.6567 48.0309C44.287 47.8163 42.9851 47.2889 41.8522 46.4897C40.7193 45.6905 39.7858 44.641 39.1241 43.4226C38.7172 42.6101 38.4635 41.7296 38.3757 40.8252C37.8611 38.552 38.2544 36.1677 39.4717 34.1801C40.689 32.1926 42.6341 30.7588 44.8929 30.184C51.4397 28.77 55.5932 33.2696 55.5932 39.6152C55.6029 39.6894 55.5954 39.7648 55.5713 39.8356C55.5472 39.9064 55.5072 39.9708 55.4543 40.0236C55.4014 40.0765 55.3371 40.1166 55.2663 40.1406C55.1954 40.1647 55.12 40.1722 55.0459 40.1625H55.0755ZM48.6145 33.7577C47.8721 33.5518 47.0939 33.5094 46.3336 33.6335C45.5733 33.7518 44.8929 33.8967 44.2006 34.4529C43.5084 35.0061 43.1415 35.941 43.0173 36.8462C43.0173 37.1627 43.0173 37.2219 43.393 37.2219H50.3747C50.7208 37.2219 50.7208 37.2219 50.6912 36.787C50.6581 36.2434 50.5128 35.713 50.2593 35.231C50.1086 34.8755 49.8798 34.5586 49.59 34.3035C49.3001 34.0485 48.9566 33.862 48.5849 33.7577H48.6145Z" fill="#FAFAFA"/>
</svg>
