<svg width="71" height="71" viewBox="0 0 71 71" fill="none" xmlns="http://www.w3.org/2000/svg">
<path d="M38.5412 5.9165C41.8693 5.92538 43.5585 5.94313 45.017 5.98455L45.5909 6.00525C46.2536 6.02892 46.9074 6.0585 47.6973 6.094C50.8449 6.24192 52.9927 6.73892 54.8771 7.46963C56.8296 8.22105 58.4745 9.23871 60.1193 10.8806C61.6242 12.359 62.7883 14.148 63.5303 16.1228C64.261 18.0072 64.758 20.155 64.9059 23.3056C64.9414 24.0925 64.971 24.7463 64.9946 25.4119L65.0124 25.9858C65.0568 27.4413 65.0745 29.1305 65.0804 32.4587L65.0834 34.6656V38.541C65.0906 40.6988 65.0679 42.8566 65.0153 45.0138L64.9976 45.5878C64.9739 46.2534 64.9443 46.9072 64.9088 47.6941C64.7609 50.8447 64.258 52.9895 63.5303 54.8769C62.7883 56.8517 61.6242 58.6407 60.1193 60.1191C58.6409 61.624 56.8519 62.7881 54.8771 63.53C52.9927 64.2608 50.8449 64.7578 47.6973 64.9057L45.5909 64.9944L45.017 65.0122C43.5585 65.0536 41.8693 65.0743 38.5412 65.0802L36.3343 65.0832H32.4618C30.303 65.0908 28.1442 65.0681 25.9861 65.0151L25.4121 64.9974C24.7099 64.9708 24.0077 64.9402 23.3058 64.9057C20.1581 64.7578 18.0104 64.2608 16.123 63.53C14.1493 62.7877 12.3613 61.6236 10.8838 60.1191C9.37781 58.641 8.21271 56.852 7.46985 54.8769C6.73914 52.9925 6.24214 50.8447 6.09422 47.6941L6.00547 45.5878L5.99068 45.0138C5.93615 42.8567 5.91149 40.6989 5.91672 38.541V32.4587C5.90853 30.3009 5.93023 28.143 5.98181 25.9858L6.00251 25.4119C6.02618 24.7463 6.05576 24.0925 6.09126 23.3056C6.23918 20.155 6.73618 18.0102 7.46689 16.1228C8.21148 14.1472 9.37863 12.3581 10.8867 10.8806C12.3634 9.37642 14.1503 8.21239 16.123 7.46963C18.0104 6.73892 20.1552 6.24192 23.3058 6.094C24.0927 6.0585 24.7495 6.02892 25.4121 6.00525L25.9861 5.9875C28.1432 5.93494 30.3011 5.91226 32.4589 5.91946L38.5412 5.9165ZM35.5001 20.7082C31.5771 20.7082 27.8147 22.2666 25.0408 25.0406C22.2668 27.8145 20.7084 31.5768 20.7084 35.4998C20.7084 39.4228 22.2668 43.1852 25.0408 45.9591C27.8147 48.7331 31.5771 50.2915 35.5001 50.2915C39.423 50.2915 43.1854 48.7331 45.9593 45.9591C48.7333 43.1852 50.2917 39.4228 50.2917 35.4998C50.2917 31.5768 48.7333 27.8145 45.9593 25.0406C43.1854 22.2666 39.423 20.7082 35.5001 20.7082ZM35.5001 26.6248C36.6655 26.6246 37.8196 26.854 38.8965 27.2998C39.9733 27.7457 40.9518 28.3992 41.7761 29.2232C42.6003 30.0472 43.2542 31.0255 43.7004 32.1022C44.1466 33.1788 44.3763 34.3329 44.3765 35.4984C44.3767 36.6638 44.1474 37.8179 43.7015 38.8948C43.2557 39.9716 42.6021 40.9501 41.7781 41.7744C40.9542 42.5986 39.9759 43.2525 38.8992 43.6987C37.8225 44.1449 36.6685 44.3746 35.503 44.3748C33.1492 44.3748 30.8918 43.4398 29.2274 41.7754C27.5631 40.111 26.628 37.8536 26.628 35.4998C26.628 33.146 27.5631 30.8887 29.2274 29.2243C30.8918 27.5599 33.1492 26.6248 35.503 26.6248M51.0343 16.2707C50.0535 16.2707 49.1129 16.6603 48.4194 17.3538C47.7259 18.0473 47.3363 18.9878 47.3363 19.9686C47.3363 20.9493 47.7259 21.8899 48.4194 22.5834C49.1129 23.2769 50.0535 23.6665 51.0343 23.6665C52.015 23.6665 52.9556 23.2769 53.6491 22.5834C54.3426 21.8899 54.7322 20.9493 54.7322 19.9686C54.7322 18.9878 54.3426 18.0473 53.6491 17.3538C52.9556 16.6603 52.015 16.2707 51.0343 16.2707Z" fill="#FAFAFA"/>
</svg>
